<svg width="15" height="14" viewBox="0 0 15 14" fill="none" xmlns="http://www.w3.org/2000/svg">
<path d="M5.3872 5.97489C6.11958 7.25704 7.18513 8.31885 8.47179 9.04867L9.16176 8.08578C9.27271 7.93095 9.43677 7.82202 9.62289 7.77959C9.80901 7.73717 10.0043 7.76419 10.1717 7.85556C11.2756 8.45672 12.4947 8.81827 13.7488 8.91644C13.9446 8.9319 14.1273 9.0203 14.2605 9.16403C14.3937 9.30775 14.4677 9.49623 14.4677 9.69189V13.1623C14.4677 13.3549 14.3961 13.5406 14.2666 13.6836C14.1371 13.8266 13.959 13.9166 13.7668 13.9362C13.3531 13.979 12.9363 14 12.5164 14C5.83521 14 0.418457 8.60222 0.418457 1.94444C0.418457 1.526 0.439531 1.11067 0.482459 0.698444C0.502171 0.506876 0.592499 0.329405 0.735962 0.200382C0.879424 0.0713589 1.06582 -4.15005e-05 1.25907 1.80968e-08H4.74172C4.93806 -2.45144e-05 5.12721 0.0736956 5.27144 0.206462C5.41566 0.339228 5.50438 0.521285 5.51989 0.716333C5.61841 1.96606 5.98123 3.18086 6.58451 4.28089C6.67619 4.44777 6.70331 4.64235 6.66074 4.82782C6.61816 5.01328 6.50885 5.17677 6.35347 5.28733L5.3872 5.97489ZM3.41875 5.46389L4.90172 4.40844C4.48086 3.50318 4.19251 2.54243 4.0455 1.55556H1.98729C1.9826 1.68467 1.98026 1.81456 1.98026 1.94444C1.97948 7.74356 6.6969 12.4444 12.5164 12.4444C12.6467 12.4444 12.7771 12.4421 12.9067 12.4367V10.3857C11.9163 10.2392 10.9522 9.95184 10.0437 9.53244L8.98458 11.0102C8.55816 10.8451 8.14398 10.6502 7.74513 10.4269L7.69986 10.4012C6.16895 9.533 4.90116 8.26966 4.02989 6.74411L4.00413 6.699C3.78005 6.30155 3.58444 5.88882 3.41875 5.46389Z" fill="#FFC700"/>
</svg>
