<svg width="56" height="53" viewBox="0 0 56 53" fill="none" xmlns="http://www.w3.org/2000/svg">
<path d="M10.5 37.3243C4.52197 33.8663 0.5 27.4028 0.5 20C0.5 8.9543 9.4543 0 20.5 0C28.9872 0 36.2397 5.28665 39.144 12.7466C39.9878 12.5848 40.859 12.5 41.75 12.5C49.344 12.5 55.5 18.6561 55.5 26.25C55.5 32.544 51.2713 37.85 45.5 39.4825V34.158C48.4562 32.7537 50.5 29.7405 50.5 26.25C50.5 21.4175 46.5825 17.5 41.75 17.5C39.3013 17.5 37.0877 18.5058 35.4995 20.1268C35.4997 20.0845 35.5 20.0422 35.5 20C35.5 11.7157 28.7843 5 20.5 5C12.2157 5 5.5 11.7157 5.5 20C5.5 24.4425 7.43125 28.434 10.5 31.1805V37.3243ZM15.5 35H20.5V45H15.5V35ZM35.5 35H40.5V45H35.5V35ZM25.5 42.5H30.5V52.5H25.5V42.5Z" fill="#FFCC15"/>
</svg>
