<svg width="23" height="19" viewBox="0 0 23 19" fill="none" xmlns="http://www.w3.org/2000/svg">
<path d="M4.00488 7.00256C4.55717 7.00256 5.00488 7.45027 5.00488 8.0026C6.63965 8.0026 8.14352 8.5629 9.3349 9.5021L11.5049 9.50259C12.837 9.50259 14.0339 10.0814 14.8579 11.0013L18.0049 11.0026C19.9972 11.0026 21.7173 12.1678 22.521 13.854C20.1562 16.9746 16.3268 19.0026 12.0049 19.0026C9.2142 19.0026 6.85466 18.3993 4.944 17.3446C4.80557 17.7281 4.43727 18.0026 4.00488 18.0026H1.00488C0.452603 18.0026 0.00488281 17.5548 0.00488281 17.0026V8.0026C0.00488281 7.45027 0.452603 7.00256 1.00488 7.00256H4.00488ZM5.00589 10.0026L5.00488 15.0237L5.05024 15.057C6.84406 16.3175 9.183 17.0026 12.0049 17.0026C15.0089 17.0026 17.8035 15.8469 19.84 13.8731L19.9729 13.7396L19.8537 13.6392C19.3897 13.2762 18.8205 13.0509 18.2099 13.0095L18.0049 13.0026L15.8932 13.0016C15.9663 13.3235 16.0049 13.6585 16.0049 14.0026V15.0026H7.00488V13.0026L13.7949 13.0016L13.7605 12.9231C13.38 12.1295 12.593 11.5678 11.6693 11.5079L11.5049 11.5026L8.57547 11.5024C7.66823 10.577 6.40412 10.0028 5.00589 10.0026ZM3.00488 9.00259H2.00488V16.0026H3.00488V9.00259ZM12.6513 1.57794L13.0046 1.9317L13.3584 1.57794C14.3347 0.601626 15.9177 0.601626 16.894 1.57794C17.8703 2.55425 17.8703 4.13716 16.894 5.11347L13.0049 9.00259L9.1158 5.11347C8.13948 4.13716 8.13948 2.55425 9.1158 1.57794C10.0921 0.601626 11.675 0.601626 12.6513 1.57794ZM10.53 2.99215C10.3564 3.16572 10.3372 3.43514 10.4714 3.62926L10.5289 3.69819L13.0039 6.17356L15.4798 3.69926C15.6533 3.52569 15.6726 3.25627 15.5376 3.0614L15.4798 2.99215C15.3062 2.81858 15.0368 2.7993 14.8417 2.93444L14.7724 2.99236L13.0033 4.76098L11.236 2.99108L11.1679 2.93429C10.973 2.7993 10.7036 2.81858 10.53 2.99215Z" fill="white"/>
</svg>
