<svg width="62" height="53" viewBox="0 0 62 53" fill="none" xmlns="http://www.w3.org/2000/svg">
<path d="M10.3333 24.5179L0 18.3916L31 0.0122681L62 18.3916V40.7093H56.8333V21.4549L51.6667 24.5179V42.0518L51.0916 42.7741C46.3597 48.7171 39.1163 52.5245 31 52.5245C22.8836 52.5245 15.6402 48.7171 10.9085 42.7741L10.3333 42.0518V24.5179ZM15.5 27.5812V40.1624C19.2903 44.5269 24.8287 47.2733 31 47.2733C37.1713 47.2733 42.7097 44.5269 46.5 40.1624V27.5812L31 36.7709L15.5 27.5812ZM10.2539 18.3916L31 30.6915L51.746 18.3916L31 6.09164L10.2539 18.3916Z" fill="#FFDB1C"/>
</svg>
