<svg width="22" height="22" viewBox="0 0 22 22" fill="none" xmlns="http://www.w3.org/2000/svg">
<path d="M0.267113 6.30943L10.4384 0.157967C10.7868 -0.0527295 11.2221 -0.0526518 11.5704 0.158177L21.733 6.30939C21.8987 6.40963 22 6.59014 22 6.78491V20.8908C22 21.5034 21.5075 22 20.9 22H1.1C0.492492 22 0 21.5034 0 20.8908V6.78505C0 6.5902 0.101398 6.40964 0.267113 6.30943ZM2.2 7.72728V19.7816H19.8V7.72676L11.0041 2.40278L2.2 7.72728ZM11.0657 13.9008L16.8912 8.95043L18.3088 10.6468L11.0814 16.7887L3.70041 10.6546L5.09959 8.94265L11.0657 13.9008Z" fill="black"/>
</svg>
