<svg width="15" height="14" viewBox="0 0 15 14" fill="none" xmlns="http://www.w3.org/2000/svg">
<path d="M0.589155 4.01417L7.08482 0.100599C7.19399 0.0347723 7.31891 0 7.44623 0C7.57355 0 7.69847 0.0347723 7.80765 0.100599L14.297 4.01488C14.3491 4.04623 14.3921 4.09061 14.4221 4.14368C14.452 4.19676 14.4677 4.25672 14.4677 4.31772V13.2941C14.4677 13.4813 14.3937 13.6609 14.2619 13.7932C14.1302 13.9256 13.9515 14 13.7652 14H1.12092C0.934614 14 0.75594 13.9256 0.624203 13.7932C0.492466 13.6609 0.418457 13.4813 0.418457 13.2941V4.31701C0.418444 4.25601 0.434163 4.19605 0.464079 4.14298C0.493995 4.0899 0.537088 4.04553 0.589155 4.01417ZM1.82338 4.91703V12.5882H13.0628V4.91633L7.44588 1.52795L1.82338 4.91633V4.91703ZM7.48522 8.84543L11.2055 5.69495L12.1102 6.77499L7.49505 10.6836L2.78154 6.77994L3.67507 5.69001L7.48522 8.84543Z" fill="#FFC700"/>
</svg>
