<svg width="22" height="23" viewBox="0 0 22 23" fill="none" xmlns="http://www.w3.org/2000/svg">
<path d="M22 16.54C21.9989 19.7052 19.7798 22.3506 16.8159 23L16.1141 20.8898C17.4385 20.6732 18.5641 19.8639 19.2114 18.7426H16.5C15.2849 18.7426 14.3 17.7554 14.3 16.5376V12.1275C14.3 10.9097 15.2849 9.92254 16.5 9.92254H19.7319C19.1906 5.57171 15.4876 2.20501 11 2.20501C6.51242 2.20501 2.80939 5.57171 2.26808 9.92254H5.5C6.71503 9.92254 7.7 10.9097 7.7 12.1275V16.5376C7.7 17.7554 6.71503 18.7426 5.5 18.7426H2.2C0.984973 18.7426 0 17.7554 0 16.5376V11.025C0 4.93608 4.92487 0 11 0C17.0751 0 22 4.93608 22 11.025V12.1261V12.1275V16.5376V16.54ZM19.8 16.5376V12.1275H16.5V16.5376H19.8ZM2.2 12.1275V16.5376H5.5V12.1275H2.2Z" fill="black"/>
</svg>
