<svg width="13" height="14" viewBox="0 0 13 14" fill="none" xmlns="http://www.w3.org/2000/svg">
<path d="M6.43955 12.1778L9.75116 8.98838C10.406 8.35758 10.852 7.55392 11.0327 6.67902C11.2133 5.80411 11.1206 4.89726 10.7661 4.07313C10.4116 3.249 9.8114 2.54462 9.04128 2.04903C8.27116 1.55345 7.36576 1.28894 6.43955 1.28894C5.51335 1.28894 4.60794 1.55345 3.83783 2.04903C3.06771 2.54462 2.46747 3.249 2.113 4.07313C1.75854 4.89726 1.66577 5.80411 1.84643 6.67902C2.02709 7.55392 2.47306 8.35758 3.12795 8.98838L6.43955 12.1778ZM6.43955 14L2.18197 9.89947C1.33991 9.08846 0.766467 8.05518 0.534148 6.93029C0.301829 5.8054 0.421071 4.63942 0.876795 3.5798C1.33252 2.52017 2.10426 1.6145 3.09442 0.977301C4.08458 0.340103 5.2487 0 6.43955 0C7.63041 0 8.79453 0.340103 9.78469 0.977301C10.7748 1.6145 11.5466 2.52017 12.0023 3.5798C12.458 4.63942 12.5773 5.8054 12.345 6.93029C12.1126 8.05518 11.5392 9.08846 10.6971 9.89947L6.43955 14ZM6.43955 7.0876C6.79442 7.0876 7.13475 6.95183 7.38568 6.71016C7.63661 6.46849 7.77758 6.14071 7.77758 5.79894C7.77758 5.45716 7.63661 5.12939 7.38568 4.88772C7.13475 4.64604 6.79442 4.51027 6.43955 4.51027C6.08469 4.51027 5.74436 4.64604 5.49343 4.88772C5.2425 5.12939 5.10153 5.45716 5.10153 5.79894C5.10153 6.14071 5.2425 6.46849 5.49343 6.71016C5.74436 6.95183 6.08469 7.0876 6.43955 7.0876ZM6.43955 8.37627C5.72982 8.37627 5.04916 8.10473 4.54731 7.62139C4.04545 7.13804 3.76351 6.48249 3.76351 5.79894C3.76351 5.11539 4.04545 4.45984 4.54731 3.97649C5.04916 3.49315 5.72982 3.22161 6.43955 3.22161C7.14928 3.22161 7.82995 3.49315 8.3318 3.97649C8.83366 4.45984 9.1156 5.11539 9.1156 5.79894C9.1156 6.48249 8.83366 7.13804 8.3318 7.62139C7.82995 8.10473 7.14928 8.37627 6.43955 8.37627Z" fill="#FFC700"/>
</svg>
