<svg width="47" height="47" viewBox="0 0 47 47" fill="none" xmlns="http://www.w3.org/2000/svg">
<path d="M0 46.375C0 36.6179 7.90963 28.7083 17.6667 28.7083C27.4237 28.7083 35.3333 36.6179 35.3333 46.375H30.9167C30.9167 39.0572 24.9844 33.125 17.6667 33.125C10.3489 33.125 4.41667 39.0572 4.41667 46.375H0ZM17.6667 26.5C10.346 26.5 4.41667 20.5706 4.41667 13.25C4.41667 5.92937 10.346 0 17.6667 0C24.9873 0 30.9167 5.92937 30.9167 13.25C30.9167 20.5706 24.9873 26.5 17.6667 26.5ZM17.6667 22.0833C22.5471 22.0833 26.5 18.1304 26.5 13.25C26.5 8.36958 22.5471 4.41667 17.6667 4.41667C12.7862 4.41667 8.83333 8.36958 8.83333 13.25C8.83333 18.1304 12.7862 22.0833 17.6667 22.0833ZM35.9598 30.2603C42.1006 33.0281 46.375 39.2023 46.375 46.375H41.9583C41.9583 40.9955 38.7525 36.3648 34.147 34.289L35.9598 30.2603ZM34.4416 5.32917C38.8543 7.14844 41.9583 11.4913 41.9583 16.5625C41.9583 22.9009 37.1093 28.1015 30.9167 28.6589V24.2135C34.6635 23.6782 37.5417 20.458 37.5417 16.5625C37.5417 13.5136 35.7785 10.8783 33.2155 9.62027L34.4416 5.32917Z" fill="#FFCC15"/>
</svg>
