<svg width="110" height="84" viewBox="0 0 110 84" fill="none" xmlns="http://www.w3.org/2000/svg">
<path d="M100.232 76.7594C106.587 70.0424 110 62.5037 110 50.2834C110 28.7909 94.8459 9.52284 72.7973 0L67.2903 8.46093C87.8657 19.5444 91.8866 33.9205 93.4943 42.9851C90.1815 41.2796 85.8447 40.6801 81.5937 41.072C70.4624 42.0995 61.6895 51.1973 61.6895 62.5037C61.6895 74.3758 71.3563 84 83.2809 84C89.9008 84 96.2308 80.9878 100.232 76.7594ZM38.5422 76.7594C44.8975 70.0424 48.3102 62.5037 48.3102 50.2834C48.3102 28.7909 33.156 9.52284 11.1076 0L5.60063 8.46093C26.1757 19.5444 30.197 33.9205 31.8043 42.9851C28.4916 41.2796 24.1551 40.6801 19.9038 41.072C8.77272 42.0995 0 51.1973 0 62.5037C0 74.3758 9.66679 84 21.5914 84C28.2111 84 34.5413 80.9878 38.5422 76.7594Z" fill="#007BFF"/>
</svg>
